<svg width="64" height="64" viewBox="0 0 64 64" fill="none" xmlns="http://www.w3.org/2000/svg">
<path d="M32 0C14.336 0 0 14.336 0 32C0 49.664 14.336 64 32 64C49.664 64 64 49.664 64 32C64 14.336 49.664 0 32 0ZM30.4898 2.65306C30.5078 2.65215 30.5262 2.65394 30.5442 2.65306L30.6803 4.82313C28.8346 4.91113 27.0382 5.18029 25.3061 5.61905L25.8435 7.7347C21.2972 8.88626 17.2478 11.2804 14.0748 14.5374L12.517 13.0136C11.25 14.3134 10.1172 15.7413 9.12926 17.2721L7.30612 16.068C12.2854 8.36912 20.767 3.14644 30.4898 2.65306ZM33.4558 2.65306C43.2012 3.12979 51.7054 8.35486 56.6939 16.068L54.8707 17.2721C53.885 15.7451 52.7533 14.3175 51.4898 13.0204L49.932 14.5374C46.7586 11.2787 42.7044 8.88666 38.1565 7.7347L38.6939 5.61905C36.9618 5.18029 35.1654 4.91113 33.3197 4.82313L33.4558 2.65306ZM32 12.2449C32.9252 12.2428 33.8503 12.2993 34.6122 12.4082L33.4218 22.3129C35.9241 22.6778 38.1181 23.9875 39.6327 25.8708L47.5782 19.9116C48.5434 21.1139 49.6375 23.0001 50.2109 24.4286L41.0816 28.3333C41.5405 29.467 41.7959 30.7024 41.7959 32C41.7959 33.2501 41.5635 34.4447 41.1361 35.5442L50.1905 39.415C49.6318 40.852 48.5491 42.7348 47.5986 43.9456L39.7075 38.0408C38.1949 39.9671 35.9758 41.3123 33.4422 41.6871L34.6122 51.4286C33.0884 51.6632 30.9116 51.6599 29.3878 51.4422L30.5578 41.6871C28.0223 41.312 25.8052 39.9626 24.2925 38.034L16.4218 43.9388C15.4566 42.7365 14.3625 40.8503 13.7891 39.4218L22.8639 35.5374C22.4379 34.4395 22.2041 33.2479 22.2041 32C22.2041 30.7002 22.458 29.4618 22.9184 28.3265L13.8095 24.4354C14.3682 22.9984 15.4509 21.1156 16.4014 19.9048L24.3673 25.8708C25.8819 23.9875 28.0759 22.6778 30.5782 22.3129L29.3878 12.4218C30.1497 12.3044 31.0748 12.247 32 12.2449ZM5.85034 18.585L7.80953 19.551C6.98321 21.153 6.3076 22.8443 5.80953 24.6122L7.90476 25.2041C7.29565 27.3657 6.96599 29.6444 6.96599 32C6.96599 34.3579 7.2945 36.6392 7.90476 38.8027L5.80953 39.3946C6.30726 41.1596 6.98422 42.8495 7.80953 44.449L5.85034 45.415C3.7812 41.3924 2.61225 36.8321 2.61225 32C2.61225 27.1679 3.7812 22.6076 5.85034 18.585ZM58.1497 18.585C60.2188 22.6076 61.3878 27.1679 61.3878 32C61.3878 36.8321 60.2188 41.3924 58.1497 45.415L56.1905 44.449C57.0161 42.849 57.6926 41.1602 58.1905 39.3946L56.0952 38.8027C56.7055 36.6392 57.034 34.3579 57.034 32C57.034 29.6444 56.7044 27.3657 56.0952 25.2041L58.1905 24.6122C57.6926 22.8448 57.0165 21.1526 56.1905 19.551L58.1497 18.585ZM9.12926 46.7279C10.1176 48.2587 11.2499 49.6865 12.517 50.9864L14.0748 49.4626C17.2478 52.7196 21.2972 55.1138 25.8435 56.2653L25.3061 58.381C27.0382 58.8197 28.8346 59.0889 30.6803 59.1769L30.5442 61.3469C20.7988 60.8702 12.2946 55.6451 7.30612 47.932L9.12926 46.7279ZM54.8776 46.7279L56.6939 47.932C51.7054 55.6451 43.2012 60.8702 33.4558 61.3469L33.3197 59.1769C35.1654 59.0889 36.9618 58.8197 38.6939 58.381L38.1565 56.2653C42.7044 55.1133 46.7586 52.7213 49.932 49.4626L51.4898 50.9796C52.7549 49.6809 53.8906 48.257 54.8776 46.7279Z" fill="#E60C0D"/>
</svg>
